<svg width="1440" height="760" viewBox="0 0 1440 760" fill="none" xmlns="http://www.w3.org/2000/svg" role="img" aria-labelledby="title desc">
  <title id="title">Catalyst Studio export provider support</title>
  <desc id="desc">Provider export support list for Optimizely CMS, Kontent.ai, Contentstack, Umbraco Compose, Strapi, Contentful, and Mock Provider.</desc>
  <defs>
    <linearGradient id="bg" x1="0" y1="0" x2="1440" y2="760" gradientUnits="userSpaceOnUse">
      <stop stop-color="#111827"/>
      <stop offset="0.58" stop-color="#172033"/>
      <stop offset="1" stop-color="#1f2937"/>
    </linearGradient>
    <filter id="shadow" x="-20%" y="-20%" width="140%" height="140%">
      <feDropShadow dx="0" dy="18" stdDeviation="18" flood-color="#020617" flood-opacity="0.32"/>
    </filter>
  </defs>

  <rect width="1440" height="760" rx="36" fill="url(#bg)"/>
  <rect x="40" y="40" width="1360" height="680" rx="28" fill="#0f172a" fill-opacity="0.58" stroke="#334155" stroke-width="1.5"/>

  <g transform="translate(88 80)">
    <rect width="70" height="70" rx="18" fill="#f97316"/>
    <path d="M22 48L35 18L48 48H40L37.6 42H32.4L30 48H22ZM34.4 36H35.6L35 34.4L34.4 36Z" fill="#fff7ed"/>
  </g>
  <text x="184" y="110" fill="#f8fafc" font-family="Inter, Segoe UI, Arial, sans-serif" font-size="56" font-weight="760">Export Targets</text>
  <text x="186" y="154" fill="#cbd5e1" font-family="Inter, Segoe UI, Arial, sans-serif" font-size="24" font-weight="450">One universal content model, multiple CMS destinations.</text>

  <g transform="translate(88 214)" filter="url(#shadow)">
    <rect width="388" height="154" rx="18" fill="#f8fafc"/>
    <rect x="24" y="26" width="62" height="62" rx="16" fill="#fff7ed" stroke="#fed7aa"/>
    <text x="55" y="68" text-anchor="middle" fill="#ea580c" font-family="Inter, Segoe UI, Arial, sans-serif" font-size="22" font-weight="780">OP</text>
    <text x="110" y="54" fill="#0f172a" font-family="Inter, Segoe UI, Arial, sans-serif" font-size="26" font-weight="740">Optimizely CMS</text>
    <rect x="110" y="78" width="148" height="34" rx="17" fill="#dcfce7"/>
    <circle cx="129" cy="95" r="5" fill="#16a34a"/>
    <text x="144" y="103" fill="#166534" font-family="Inter, Segoe UI, Arial, sans-serif" font-size="16" font-weight="700">Active adapter</text>
    <text x="24" y="132" fill="#475569" font-family="Inter, Segoe UI, Arial, sans-serif" font-size="16">Pages, blocks, folders, publishing</text>
  </g>

  <g transform="translate(526 214)" filter="url(#shadow)">
    <rect width="388" height="154" rx="18" fill="#f8fafc"/>
    <rect x="24" y="26" width="62" height="62" rx="16" fill="#eef2ff" stroke="#c7d2fe"/>
    <text x="55" y="68" text-anchor="middle" fill="#4f46e5" font-family="Inter, Segoe UI, Arial, sans-serif" font-size="22" font-weight="780">KO</text>
    <text x="110" y="54" fill="#0f172a" font-family="Inter, Segoe UI, Arial, sans-serif" font-size="26" font-weight="740">Kontent.ai</text>
    <rect x="110" y="78" width="148" height="34" rx="17" fill="#dcfce7"/>
    <circle cx="129" cy="95" r="5" fill="#16a34a"/>
    <text x="144" y="103" fill="#166534" font-family="Inter, Segoe UI, Arial, sans-serif" font-size="16" font-weight="700">Active adapter</text>
    <text x="24" y="132" fill="#475569" font-family="Inter, Segoe UI, Arial, sans-serif" font-size="16">Types, items, variants, references</text>
  </g>

  <g transform="translate(964 214)" filter="url(#shadow)">
    <rect width="388" height="154" rx="18" fill="#f8fafc"/>
    <rect x="24" y="26" width="62" height="62" rx="16" fill="#ecfeff" stroke="#a5f3fc"/>
    <text x="55" y="68" text-anchor="middle" fill="#0891b2" font-family="Inter, Segoe UI, Arial, sans-serif" font-size="22" font-weight="780">CS</text>
    <text x="110" y="54" fill="#0f172a" font-family="Inter, Segoe UI, Arial, sans-serif" font-size="26" font-weight="740">Contentstack</text>
    <rect x="110" y="78" width="148" height="34" rx="17" fill="#dcfce7"/>
    <circle cx="129" cy="95" r="5" fill="#16a34a"/>
    <text x="144" y="103" fill="#166534" font-family="Inter, Segoe UI, Arial, sans-serif" font-size="16" font-weight="700">Active adapter</text>
    <text x="24" y="132" fill="#475569" font-family="Inter, Segoe UI, Arial, sans-serif" font-size="16">Content types and entries</text>
  </g>

  <g transform="translate(88 408)" filter="url(#shadow)">
    <rect width="388" height="154" rx="18" fill="#f8fafc"/>
    <rect x="24" y="26" width="62" height="62" rx="16" fill="#f0fdf4" stroke="#bbf7d0"/>
    <text x="55" y="68" text-anchor="middle" fill="#15803d" font-family="Inter, Segoe UI, Arial, sans-serif" font-size="22" font-weight="780">UC</text>
    <text x="110" y="54" fill="#0f172a" font-family="Inter, Segoe UI, Arial, sans-serif" font-size="25" font-weight="740">Umbraco Compose</text>
    <rect x="110" y="78" width="176" height="34" rx="17" fill="#fef3c7"/>
    <circle cx="129" cy="95" r="5" fill="#d97706"/>
    <text x="144" y="103" fill="#92400e" font-family="Inter, Segoe UI, Arial, sans-serif" font-size="16" font-weight="700">Partial adapter</text>
    <text x="24" y="132" fill="#475569" font-family="Inter, Segoe UI, Arial, sans-serif" font-size="16">Schema and content flows</text>
  </g>

  <g transform="translate(526 408)" filter="url(#shadow)">
    <rect width="388" height="154" rx="18" fill="#f8fafc"/>
    <rect x="24" y="26" width="62" height="62" rx="16" fill="#f5f3ff" stroke="#ddd6fe"/>
    <text x="55" y="68" text-anchor="middle" fill="#7c3aed" font-family="Inter, Segoe UI, Arial, sans-serif" font-size="22" font-weight="780">ST</text>
    <text x="110" y="54" fill="#0f172a" font-family="Inter, Segoe UI, Arial, sans-serif" font-size="26" font-weight="740">Strapi</text>
    <rect x="110" y="78" width="172" height="34" rx="17" fill="#ffedd5"/>
    <circle cx="129" cy="95" r="5" fill="#ea580c"/>
    <text x="144" y="103" fill="#9a3412" font-family="Inter, Segoe UI, Arial, sans-serif" font-size="16" font-weight="700">Experimental</text>
    <text x="24" y="132" fill="#475569" font-family="Inter, Segoe UI, Arial, sans-serif" font-size="16">Schema operations and content sync</text>
  </g>

  <g transform="translate(964 408)" filter="url(#shadow)">
    <rect width="388" height="154" rx="18" fill="#f8fafc"/>
    <rect x="24" y="26" width="62" height="62" rx="16" fill="#eff6ff" stroke="#bfdbfe"/>
    <text x="55" y="68" text-anchor="middle" fill="#2563eb" font-family="Inter, Segoe UI, Arial, sans-serif" font-size="22" font-weight="780">CF</text>
    <text x="110" y="54" fill="#0f172a" font-family="Inter, Segoe UI, Arial, sans-serif" font-size="26" font-weight="740">Contentful</text>
    <rect x="110" y="78" width="178" height="34" rx="17" fill="#e2e8f0"/>
    <circle cx="129" cy="95" r="5" fill="#64748b"/>
    <text x="144" y="103" fill="#334155" font-family="Inter, Segoe UI, Arial, sans-serif" font-size="16" font-weight="700">Adapter present</text>
    <text x="24" y="132" fill="#475569" font-family="Inter, Segoe UI, Arial, sans-serif" font-size="16">Manual configuration required</text>
  </g>

  <g transform="translate(88 604)">
    <rect width="1264" height="64" rx="18" fill="#020617" fill-opacity="0.42" stroke="#334155"/>
    <rect x="24" y="15" width="166" height="34" rx="17" fill="#e0f2fe"/>
    <circle cx="43" cy="32" r="5" fill="#0284c7"/>
    <text x="58" y="40" fill="#075985" font-family="Inter, Segoe UI, Arial, sans-serif" font-size="16" font-weight="720">Mock Provider</text>
    <text x="214" y="40" fill="#cbd5e1" font-family="Inter, Segoe UI, Arial, sans-serif" font-size="18">Local deterministic export target for demos and tests without external CMS credentials.</text>
    <text x="1110" y="40" fill="#94a3b8" font-family="Inter, Segoe UI, Arial, sans-serif" font-size="17" text-anchor="end">Use</text>
    <text x="1120" y="40" fill="#f8fafc" font-family="Consolas, Menlo, monospace" font-size="17">CMS_PROVIDER=auto</text>
  </g>
</svg>
